<svg width="495" height="422" viewBox="0 0 495 422" fill="none" xmlns="http://www.w3.org/2000/svg">
<g clip-path="url(#clip0)">
<path fill-rule="evenodd" clip-rule="evenodd" d="M3.41338 437C1.18718 428.709 0 419.993 0 411C0 355.772 44.7715 311 100 311C155.228 311 200 355.772 200 411C200 419.993 198.813 428.709 196.587 437H142.717C147.338 429.424 150 420.523 150 411C150 383.386 127.614 361 100 361C72.3858 361 50 383.386 50 411C50 420.523 52.6623 429.424 57.2832 437H3.41338Z" fill="#FFB802"/>
<path fill-rule="evenodd" clip-rule="evenodd" d="M150.413 233C148.187 241.291 147 250.007 147 259C147 314.228 191.772 359 247 359C302.228 359 347 314.228 347 259C347 250.007 345.813 241.291 343.587 233H289.717C294.338 240.576 297 249.477 297 259C297 286.614 274.614 309 247 309C219.386 309 197 286.614 197 259C197 249.477 199.662 240.576 204.283 233H150.413Z" fill="#D43232"/>
<path fill-rule="evenodd" clip-rule="evenodd" d="M150.413 200C148.187 191.709 147 182.993 147 174C147 118.772 191.772 74 247 74C302.228 74 347 118.772 347 174C347 182.993 345.813 191.709 343.587 200H289.717C294.338 192.424 297 183.523 297 174C297 146.386 274.614 124 247 124C219.386 124 197 146.386 197 174C197 183.523 199.662 192.424 204.283 200H150.413Z" fill="#D53232"/>
<path fill-rule="evenodd" clip-rule="evenodd" d="M297.413 0C295.187 8.2906 294 17.0067 294 26C294 81.2285 338.772 126 394 126C449.228 126 494 81.2285 494 26C494 17.0067 492.813 8.2906 490.587 0H436.717C441.338 7.57573 444 16.477 444 26C444 53.6142 421.614 76 394 76C366.386 76 344 53.6142 344 26C344 16.477 346.662 7.57573 351.283 0H297.413Z" fill="#21E640"/>
</g>
<defs>
<clipPath id="clip0">
<rect width="495" height="422" fill="white"/>
</clipPath>
</defs>
</svg>
